<svg width="87" height="21" viewBox="0 0 87 21" fill="none" xmlns="http://www.w3.org/2000/svg">
<g clip-path="url(#clip0_205_97)">
<path d="M33.9771 13.7234C33.7462 14.0581 33.4395 14.3273 33.0847 14.5068C32.6684 14.7078 32.2135 14.8056 31.7554 14.7927C31.1729 14.8179 30.5974 14.6522 30.1087 14.3188C29.6729 13.9957 29.3398 13.5426 29.1528 13.0183C28.9371 12.4259 28.8307 11.7959 28.8392 11.1617C28.8279 10.5177 28.937 9.87768 29.1603 9.27769C29.3513 8.7316 29.7052 8.26474 30.1694 7.94648C30.6336 7.62823 31.1832 7.47556 31.7367 7.51117C32.3825 7.47272 33.0185 7.69089 33.5178 8.1222C33.9334 8.50948 34.1992 9.04327 34.2646 9.62238H36.4042C36.3711 8.84143 36.1306 8.08573 35.7096 7.44066C35.2931 6.81281 34.7248 6.31259 34.063 5.99141C33.3345 5.63802 32.5392 5.46257 31.7367 5.47829C30.9666 5.4573 30.2016 5.61513 29.4964 5.94049C28.8866 6.23384 28.3441 6.6613 27.9057 7.1939C27.4826 7.71409 27.157 8.31344 26.9461 8.96042C26.7338 9.61091 26.6265 10.294 26.6287 10.9815V11.3223C26.628 11.9976 26.7327 12.6684 26.9386 13.3082C27.143 13.9565 27.4623 14.5585 27.8796 15.0826C28.3127 15.6273 28.8595 16.0602 29.4777 16.3477C30.2154 16.6627 31.0057 16.8198 31.8021 16.8097C32.5985 16.7996 33.385 16.6225 34.1152 16.289C34.7933 15.9713 35.3812 15.4747 35.8217 14.8475C36.2556 14.1946 36.4971 13.4223 36.5162 12.6267H34.3729C34.3398 13.0235 34.2028 13.403 33.9771 13.7234Z" fill="white"/>
<path d="M37.3826 5.81897V7.59725H38.8687V16.4573H41.0717V7.59725V5.81897H38.8687H37.3826Z" fill="white"/>
<path d="M39.5856 4.33827C39.7728 4.35222 39.9607 4.32453 40.1371 4.25704C40.3134 4.18954 40.4741 4.08375 40.6087 3.94658C40.8333 3.68073 40.951 3.33402 40.9373 2.97911C40.9483 2.627 40.8308 2.28375 40.6087 2.01946C40.4749 1.88105 40.3143 1.77444 40.1378 1.70686C39.9613 1.63928 39.773 1.61231 39.5856 1.62777C39.4007 1.61356 39.2149 1.64118 39.041 1.70875C38.8671 1.77633 38.709 1.88229 38.5775 2.01946C38.3554 2.28375 38.2379 2.627 38.2489 2.97911C38.2352 3.33402 38.3529 3.68073 38.5775 3.94658C38.7098 4.08252 38.868 4.18766 39.0417 4.25515C39.2155 4.32264 39.4008 4.35097 39.5856 4.33827Z" fill="white"/>
<path d="M45.8174 6.83732C45.3179 7.48056 45.0101 8.26391 44.9324 9.08954V5.83851H43.1849V16.4572H45.3842V10.813C45.3563 10.3999 45.4081 9.98509 45.5364 9.59342C45.6647 9.20174 45.8669 8.84121 46.131 8.53334C46.4283 8.25631 46.7752 8.04432 47.1516 7.9098C47.528 7.77528 47.9262 7.72094 48.3228 7.74996H49.0024V5.70142H48.629C47.3943 5.70142 46.4571 6.08005 45.8174 6.83732Z" fill="white"/>
<path d="M57.0415 13.7242C56.8082 14.0582 56.5006 14.3272 56.1453 14.5076C55.7305 14.7091 55.2767 14.807 54.8198 14.7935C54.231 14.8185 53.6497 14.6486 53.1582 14.3078C52.7213 13.9851 52.387 13.532 52.1985 13.0074C51.986 12.4142 51.8809 11.7845 51.8886 11.1508C51.8755 10.5067 51.9846 9.86624 52.2097 9.26678C52.4008 8.72069 52.7547 8.25383 53.2188 7.93557C53.683 7.61732 54.2327 7.46465 54.7862 7.50026C55.4309 7.46164 56.0657 7.67988 56.5635 8.1113C56.9791 8.49857 57.2449 9.03236 57.3103 9.61147H59.4387C59.4081 8.83243 59.1729 8.0774 58.7591 7.42975C58.3426 6.8019 57.7742 6.30168 57.1124 5.9805C56.3961 5.65083 55.6237 5.47638 54.8415 5.46763C54.0594 5.45888 53.2836 5.61601 52.5607 5.92958C51.9498 6.22078 51.4069 6.64857 50.9701 7.18299C50.547 7.70318 50.2214 8.30253 50.0105 8.94951C49.797 9.59979 49.6884 10.2829 49.6893 10.9706V11.3232C49.6899 11.9986 49.7959 12.6695 50.003 13.309C50.2075 13.9565 50.5253 14.5582 50.9402 15.0834C51.3756 15.6273 51.9234 16.06 52.5421 16.3486C53.2608 16.6723 54.0379 16.8287 54.8198 16.8068C55.6373 16.821 56.4474 16.643 57.1908 16.2859C57.8631 15.9656 58.4465 15.4708 58.886 14.8484C59.32 14.1955 59.5615 13.4232 59.5805 12.6275H57.4373C57.4007 13.0235 57.264 13.4021 57.0415 13.7242Z" fill="white"/>
<path d="M60.2678 2.0509V3.82526H61.6046V16.4573H63.8263V3.82526V2.0509H61.6046H60.2678Z" fill="white"/>
<path d="M73.6091 6.23033C72.7899 5.70299 71.84 5.44261 70.8796 5.4822C70.1194 5.46454 69.3647 5.62233 68.6691 5.94439C68.0652 6.23147 67.5296 6.65555 67.1008 7.18605C66.6865 7.70511 66.3697 8.30188 66.1673 8.94475C65.9611 9.59658 65.8564 10.2791 65.8574 10.9659V11.3576C65.8576 12.0391 65.9623 12.7163 66.1673 13.363C66.3697 14.0047 66.6865 14.6002 67.1008 15.1178C67.5355 15.6579 68.0822 16.0866 68.699 16.3712C70.1318 16.9903 71.7373 17.0043 73.1797 16.4104C73.7986 16.139 74.3447 15.7127 74.7703 15.1687C75.201 14.6111 75.49 13.9481 75.6105 13.2416H73.5605C73.4307 13.7163 73.1346 14.1221 72.7316 14.3775C72.2044 14.6931 71.6079 14.8592 71.0009 14.8592C70.3939 14.8592 69.7974 14.6931 69.2703 14.3775C68.8176 14.0525 68.4699 13.5908 68.2733 13.0536C68.1069 12.6087 68.0062 12.1398 67.9746 11.6631H75.8159V10.7348C75.8124 9.84066 75.6144 8.95917 75.2371 8.15745C74.8745 7.36967 74.311 6.70264 73.6091 6.23033ZM69.2628 7.8911C69.7452 7.58892 70.295 7.42547 70.8568 7.41721C71.4186 7.40896 71.9725 7.5562 72.4628 7.8441C72.8718 8.14209 73.1876 8.56052 73.3701 9.04659C73.5014 9.38572 73.5905 9.74116 73.6352 10.1042H68.0268C68.074 9.79285 68.1541 9.48805 68.2658 9.19543C68.4646 8.66482 68.8123 8.21 69.2628 7.8911Z" fill="white"/>
<path d="M84.8482 11.1382C84.0443 10.5558 83.1048 10.2133 82.1299 10.1472L81.1329 10.0493C80.6965 10.0291 80.2734 9.88562 79.9082 9.63412C79.7852 9.53019 79.6872 9.39728 79.6223 9.2462C79.5575 9.09511 79.5275 8.9301 79.5348 8.76456C79.533 8.567 79.5773 8.37196 79.6638 8.19649C79.7504 8.02102 79.8766 7.87045 80.0314 7.75792C80.4592 7.46815 80.9646 7.33079 81.4727 7.36623C82.0004 7.33083 82.5246 7.47657 82.9663 7.78142C83.1231 7.90038 83.2531 8.05389 83.3473 8.23118C83.4414 8.40846 83.4975 8.60523 83.5115 8.80765H85.5241C85.5371 8.33147 85.4396 7.8591 85.2399 7.43126C85.0402 7.00341 84.7443 6.63293 84.3777 6.35175C83.5149 5.75528 82.4937 5.46176 81.4615 5.51353C80.7564 5.49817 80.0555 5.63136 79.4004 5.90522C78.8486 6.13479 78.367 6.51807 78.0076 7.01371C77.6589 7.53888 77.4808 8.16795 77.4998 8.80765C77.4841 9.21294 77.5587 9.61649 77.7174 9.98633C77.8762 10.3562 78.1149 10.6822 78.4146 10.9385C79.1296 11.5097 79.9896 11.8463 80.8865 11.9059L81.8872 12.0078C82.4142 12.0275 82.9279 12.1865 83.3808 12.47C83.5239 12.577 83.6395 12.7196 83.717 12.8851C83.7946 13.0505 83.8317 13.2336 83.8251 13.4179C83.8216 13.6385 83.7641 13.8545 83.6582 14.0452C83.5523 14.2358 83.4015 14.3948 83.2202 14.5068C82.7223 14.8206 82.1461 14.9707 81.5661 14.9376C80.7371 14.9376 80.1434 14.7731 79.7775 14.4441C79.6149 14.3146 79.4793 14.1515 79.3791 13.9649C79.2789 13.7783 79.2163 13.5721 79.195 13.3591H77.1638C77.1638 13.8456 77.2717 14.3253 77.4791 14.7605C77.6865 15.1956 77.9876 15.574 78.3586 15.8659C79.1054 16.4717 80.1683 16.7746 81.5474 16.7746C82.3135 16.7897 83.0748 16.6459 83.7878 16.3516C84.392 16.1065 84.9212 15.6935 85.3187 15.157C85.6836 14.6367 85.8752 14.0049 85.8638 13.3591C85.8804 12.93 85.7965 12.5033 85.6194 12.1161C85.4423 11.729 85.1776 11.3932 84.8482 11.1382Z" fill="white"/>
<path d="M10.2197 2.20653C11.8053 2.20653 13.3554 2.67462 14.6739 3.55159C15.9923 4.42856 17.0199 5.67503 17.6267 7.13339C18.2335 8.59174 18.3923 10.1965 18.083 11.7446C17.7736 13.2928 17.01 14.7149 15.8888 15.8311C14.7675 16.9473 13.339 17.7074 11.7838 18.0153C10.2285 18.3233 8.61653 18.1652 7.15155 17.5612C5.68656 16.9571 4.43442 15.9341 3.55347 14.6217C2.67251 13.3092 2.2023 11.7661 2.2023 10.1876C2.2023 8.0709 3.04698 6.04088 4.55053 4.54414C6.05407 3.0474 8.09332 2.20653 10.2197 2.20653ZM10.2197 0C8.19838 0 6.22249 0.596667 4.54185 1.71455C2.86122 2.83243 1.55133 4.42132 0.777816 6.28029C0.004306 8.13926 -0.19808 10.1848 0.196253 12.1583C0.590585 14.1318 1.56392 15.9445 2.99318 17.3673C4.42245 18.7901 6.24343 19.759 8.22588 20.1516C10.2083 20.5441 12.2632 20.3427 14.1306 19.5726C15.998 18.8026 17.5941 17.4987 18.7171 15.8256C19.84 14.1526 20.4394 12.1857 20.4394 10.1735C20.4394 7.47534 19.3627 4.88766 17.4461 2.97976C15.5295 1.07185 12.9301 0 10.2197 0Z" fill="#1352F1"/>
<path d="M10.2196 5.75989C9.3424 5.75989 8.48491 6.01875 7.75555 6.50374C7.02619 6.98873 6.45772 7.67806 6.12203 8.48457C5.78635 9.29107 5.69851 10.1785 5.86965 11.0347C6.04078 11.8909 6.46319 12.6774 7.08346 13.2946C7.70373 13.9119 8.494 14.3323 9.35434 14.5026C10.2147 14.6729 11.1064 14.5855 11.9169 14.2514C12.7273 13.9173 13.42 13.3516 13.9073 12.6258C14.3947 11.8999 14.6548 11.0466 14.6548 10.1736C14.6548 9.00304 14.1875 7.88038 13.3557 7.05264C12.524 6.22491 11.3959 5.75989 10.2196 5.75989Z" fill="#1352F1"/>
</g>
<defs>
<clipPath id="clip0_205_97">
<rect width="86.475" height="20.3471" fill="white"/>
</clipPath>
</defs>
</svg>
