<svg width="30" height="30" viewBox="0 0 30 30" fill="none" xmlns="http://www.w3.org/2000/svg">
<path fill-rule="evenodd" clip-rule="evenodd" d="M21.1547 5.12015C19.254 3.85586 17.0193 3.18105 14.7333 3.18105C11.6679 3.18105 8.72803 4.39328 6.56044 6.55105C4.39285 8.70883 3.17512 11.6354 3.17512 14.687C3.17512 16.9626 3.85299 19.1872 5.12303 21.0793C6.39306 22.9715 8.19821 24.4462 10.3102 25.3171C12.4222 26.1879 14.7462 26.4158 16.9882 25.9718C19.2303 25.5278 21.2898 24.432 22.9062 22.8229C24.5227 21.2138 25.6235 19.1636 26.0695 16.9317C26.5154 14.6997 26.2866 12.3863 25.4117 10.2838C24.5369 8.18141 23.0555 6.38443 21.1547 5.12015ZM6.54794 2.47178C8.97082 0.860185 11.8194 0 14.7333 0C18.6409 0 22.3883 1.54523 25.1514 4.29577C27.9144 7.0463 29.4667 10.7768 29.4667 14.6667C29.4667 17.5675 28.6026 20.4031 26.9837 22.815C25.3647 25.2269 23.0637 27.1068 20.3715 28.2169C17.6794 29.327 14.717 29.6174 11.859 29.0515C9.00102 28.4856 6.37579 27.0887 4.3153 25.0376C2.25481 22.9864 0.851592 20.373 0.283103 17.528C-0.285385 14.6829 0.00638373 11.734 1.12151 9.05398C2.23665 6.37399 4.12505 4.08337 6.54794 2.47178ZM11.1811 9.37596C12.2326 8.67678 13.4688 8.30359 14.7334 8.30359C16.4292 8.30359 18.0556 8.97398 19.2547 10.1673C20.4538 11.3606 21.1274 12.9791 21.1274 14.6667C21.1274 15.9252 20.7524 17.1554 20.0498 18.2018C19.3472 19.2482 18.3486 20.0638 17.1803 20.5454C16.012 21.027 14.7263 21.153 13.486 20.9075C12.2457 20.662 11.1064 20.0559 10.2122 19.166C9.31802 18.2761 8.70905 17.1424 8.46234 15.908C8.21563 14.6737 8.34225 13.3943 8.82619 12.2316C9.31014 11.0689 10.1297 10.0751 11.1811 9.37596Z" fill="#1352F1"/>
</svg>
